<svg width="1136" height="300" viewBox="0 0 1136 300" fill="none" xmlns="http://www.w3.org/2000/svg">
<path fill-rule="evenodd" clip-rule="evenodd" d="M172.5 112C170.291 112 168.5 113.791 168.5 116V120.518L155.717 113.591C152.151 111.658 147.849 111.659 144.283 113.591L98.3763 138.471C93.215 141.268 90 146.667 90 152.538V185.207V202C90 210.836 97.1634 218 106 218H126.001C129.315 218 132.001 215.314 132.001 212V184.899C132.001 175.909 140.062 168.616 150 168.616C159.943 168.616 167.999 175.904 167.999 184.899V212C167.999 215.314 170.685 218 173.999 218H194C202.837 218 210 210.836 210 202L210 184.964V152.533C210 146.662 206.785 141.263 201.623 138.466L192.5 133.522V116C192.5 113.791 190.709 112 188.5 112H172.5Z" fill="#02A47E"/>
<path fill-rule="evenodd" clip-rule="evenodd" d="M15.9463 67.1236C6.13488 72.3259 0 82.5228 0 93.6282V270C0 286.568 13.4315 300 30 300H270C286.569 300 300 286.568 300 270V93.6282C300 82.5228 293.865 72.3259 284.054 67.1236L164.054 3.49539C155.264 -1.16513 144.736 -1.16513 135.946 3.49539L15.9463 67.1236ZM55.6309 94.7135C49.0899 98.1818 45 104.98 45 112.383V237.445C45 248.491 53.9543 257.445 65 257.445H235C246.046 257.445 255 248.491 255 237.445V112.383C255 104.98 250.91 98.1817 244.369 94.7135L159.369 49.6436C153.509 46.5365 146.491 46.5365 140.631 49.6436L55.6309 94.7135Z" fill="#02A47E"/>
<path d="M382 228V121.5H419.8C428.4 121.5 435.9 122.9 442.3 125.7C448.8 128.5 454.2 132.3 458.5 137.1C462.9 141.9 466.2 147.55 468.4 154.05C470.6 160.45 471.7 167.3 471.7 174.6C471.7 182.7 470.45 190.05 467.95 196.65C465.55 203.15 462.1 208.75 457.6 213.45C453.1 218.05 447.65 221.65 441.25 224.25C434.85 226.75 427.7 228 419.8 228H382ZM454.6 174.6C454.6 169 453.8 163.85 452.2 159.15C450.7 154.45 448.45 150.45 445.45 147.15C442.45 143.75 438.8 141.1 434.5 139.2C430.2 137.3 425.3 136.35 419.8 136.35H398.8V213.15H419.8C425.4 213.15 430.35 212.2 434.65 210.3C439.05 208.3 442.7 205.6 445.6 202.2C448.6 198.7 450.85 194.6 452.35 189.9C453.85 185.2 454.6 180.1 454.6 174.6ZM525.523 229.5C519.323 229.5 513.723 228.4 508.723 226.2C503.823 224 499.623 221.05 496.123 217.35C492.623 213.65 489.923 209.35 488.023 204.45C486.123 199.45 485.173 194.25 485.173 188.85C485.173 183.45 486.123 178.3 488.023 173.4C489.923 168.4 492.623 164.05 496.123 160.35C499.723 156.65 503.973 153.7 508.873 151.5C513.873 149.3 519.423 148.2 525.523 148.2C531.623 148.2 537.123 149.3 542.023 151.5C547.023 153.7 551.273 156.65 554.773 160.35C558.373 164.05 561.123 168.4 563.023 173.4C564.923 178.3 565.873 183.45 565.873 188.85C565.873 194.25 564.923 199.45 563.023 204.45C561.123 209.35 558.373 213.65 554.773 217.35C551.273 221.05 547.023 224 542.023 226.2C537.123 228.4 531.623 229.5 525.523 229.5ZM502.123 189C502.123 192.8 502.723 196.3 503.923 199.5C505.123 202.7 506.773 205.5 508.873 207.9C510.973 210.2 513.423 212.05 516.223 213.45C519.123 214.75 522.223 215.4 525.523 215.4C528.823 215.4 531.873 214.75 534.673 213.45C537.573 212.05 540.073 210.15 542.173 207.75C544.273 205.35 545.923 202.55 547.123 199.35C548.323 196.15 548.923 192.65 548.923 188.85C548.923 185.15 548.323 181.7 547.123 178.5C545.923 175.2 544.273 172.35 542.173 169.95C540.073 167.55 537.573 165.7 534.673 164.4C531.873 163 528.823 162.3 525.523 162.3C522.323 162.3 519.273 163 516.373 164.4C513.573 165.8 511.123 167.7 509.023 170.1C506.923 172.5 505.223 175.35 503.923 178.65C502.723 181.85 502.123 185.3 502.123 189ZM618.757 229.5C612.557 229.5 606.957 228.4 601.957 226.2C597.057 224 592.857 221.05 589.357 217.35C585.857 213.65 583.157 209.35 581.257 204.45C579.357 199.45 578.407 194.25 578.407 188.85C578.407 183.45 579.357 178.3 581.257 173.4C583.157 168.4 585.857 164.05 589.357 160.35C592.957 156.65 597.207 153.7 602.107 151.5C607.107 149.3 612.657 148.2 618.757 148.2C624.857 148.2 630.357 149.3 635.257 151.5C640.257 153.7 644.507 156.65 648.007 160.35C651.607 164.05 654.357 168.4 656.257 173.4C658.157 178.3 659.107 183.45 659.107 188.85C659.107 194.25 658.157 199.45 656.257 204.45C654.357 209.35 651.607 213.65 648.007 217.35C644.507 221.05 640.257 224 635.257 226.2C630.357 228.4 624.857 229.5 618.757 229.5ZM595.357 189C595.357 192.8 595.957 196.3 597.157 199.5C598.357 202.7 600.007 205.5 602.107 207.9C604.207 210.2 606.657 212.05 609.457 213.45C612.357 214.75 615.457 215.4 618.757 215.4C622.057 215.4 625.107 214.75 627.907 213.45C630.807 212.05 633.307 210.15 635.407 207.75C637.507 205.35 639.157 202.55 640.357 199.35C641.557 196.15 642.157 192.65 642.157 188.85C642.157 185.15 641.557 181.7 640.357 178.5C639.157 175.2 637.507 172.35 635.407 169.95C633.307 167.55 630.807 165.7 627.907 164.4C625.107 163 622.057 162.3 618.757 162.3C615.557 162.3 612.507 163 609.607 164.4C606.807 165.8 604.357 167.7 602.257 170.1C600.157 172.5 598.457 175.35 597.157 178.65C595.957 181.85 595.357 185.3 595.357 189ZM720.842 163.8C714.442 164 708.742 165.5 703.742 168.3C698.842 171 695.342 174.9 693.242 180V228H676.742V149.55H692.042V167.1C694.742 161.7 698.242 157.4 702.542 154.2C706.942 150.9 711.642 149.1 716.642 148.8C717.642 148.8 718.442 148.8 719.042 148.8C719.742 148.8 720.342 148.85 720.842 148.95V163.8ZM764.345 229.5C758.045 229.5 751.745 228.5 745.445 226.5C739.245 224.4 733.895 221.45 729.395 217.65L735.995 207.15C740.695 210.55 745.345 213.15 749.945 214.95C754.545 216.65 759.245 217.5 764.045 217.5C768.945 217.5 772.795 216.55 775.595 214.65C778.495 212.75 779.945 210.05 779.945 206.55C779.945 203.25 778.345 200.85 775.145 199.35C771.945 197.85 766.945 196.2 760.145 194.4C755.245 193.1 751.045 191.85 747.545 190.65C744.045 189.45 741.195 188.05 738.995 186.45C736.795 184.85 735.195 183 734.195 180.9C733.195 178.8 732.695 176.25 732.695 173.25C732.695 169.25 733.445 165.7 734.945 162.6C736.545 159.5 738.695 156.9 741.395 154.8C744.195 152.6 747.445 150.95 751.145 149.85C754.845 148.75 758.845 148.2 763.145 148.2C769.045 148.2 774.545 149.1 779.645 150.9C784.745 152.7 789.295 155.3 793.295 158.7L786.245 168.6C778.945 162.8 771.195 159.9 762.995 159.9C758.795 159.9 755.245 160.8 752.345 162.6C749.545 164.3 748.145 167.05 748.145 170.85C748.145 172.45 748.445 173.8 749.045 174.9C749.645 176 750.595 176.95 751.895 177.75C753.295 178.55 755.045 179.3 757.145 180C759.345 180.6 762.045 181.3 765.245 182.1C770.545 183.4 775.095 184.7 778.895 186C782.795 187.3 785.995 188.85 788.495 190.65C790.995 192.35 792.845 194.4 794.045 196.8C795.245 199.1 795.845 201.9 795.845 205.2C795.845 212.7 792.995 218.65 787.295 223.05C781.695 227.35 774.045 229.5 764.345 229.5ZM856.909 223.95C854.809 224.95 851.909 226.1 848.209 227.4C844.509 228.6 840.559 229.2 836.359 229.2C833.759 229.2 831.309 228.85 829.009 228.15C826.709 227.45 824.659 226.4 822.859 225C821.159 223.6 819.809 221.8 818.809 219.6C817.809 217.3 817.309 214.55 817.309 211.35V162.3H806.959V149.55H817.309V123.75H833.809V149.55H850.909V162.3H833.809V206.1C834.009 208.9 834.859 210.95 836.359 212.25C837.959 213.45 839.909 214.05 842.209 214.05C844.509 214.05 846.709 213.65 848.809 212.85C850.909 212.05 852.459 211.4 853.459 210.9L856.909 223.95ZM904.983 229.5C898.883 229.5 893.333 228.45 888.333 226.35C883.333 224.15 879.033 221.2 875.433 217.5C871.933 213.8 869.183 209.5 867.183 204.6C865.283 199.7 864.333 194.5 864.333 189C864.333 183.5 865.283 178.3 867.183 173.4C869.183 168.4 871.933 164.05 875.433 160.35C879.033 156.55 883.333 153.6 888.333 151.5C893.333 149.3 898.933 148.2 905.133 148.2C911.233 148.2 916.733 149.3 921.633 151.5C926.633 153.7 930.883 156.65 934.383 160.35C937.883 163.95 940.533 168.2 942.333 173.1C944.233 177.9 945.183 182.95 945.183 188.25C945.183 189.45 945.133 190.6 945.033 191.7C944.933 192.7 944.833 193.55 944.733 194.25H881.883C882.183 197.75 882.983 200.9 884.283 203.7C885.683 206.5 887.433 208.95 889.533 211.05C891.733 213.05 894.183 214.6 896.883 215.7C899.683 216.8 902.583 217.35 905.583 217.35C907.783 217.35 909.933 217.1 912.033 216.6C914.233 216 916.233 215.2 918.033 214.2C919.833 213.1 921.433 211.8 922.833 210.3C924.233 208.8 925.333 207.15 926.133 205.35L940.233 209.4C937.533 215.3 933.033 220.15 926.733 223.95C920.533 227.65 913.283 229.5 904.983 229.5ZM928.833 182.85C928.533 179.55 927.683 176.5 926.283 173.7C924.983 170.9 923.283 168.55 921.183 166.65C919.083 164.65 916.633 163.1 913.833 162C911.033 160.9 908.083 160.35 904.983 160.35C901.883 160.35 898.933 160.9 896.133 162C893.433 163.1 891.033 164.65 888.933 166.65C886.833 168.55 885.133 170.9 883.833 173.7C882.533 176.5 881.733 179.55 881.433 182.85H928.833ZM982.492 229.5C978.692 229.5 975.142 228.9 971.842 227.7C968.642 226.4 965.842 224.65 963.442 222.45C961.142 220.25 959.292 217.65 957.892 214.65C956.592 211.65 955.942 208.4 955.942 204.9C955.942 201.2 956.742 197.85 958.342 194.85C959.942 191.85 962.192 189.25 965.092 187.05C968.092 184.85 971.592 183.15 975.592 181.95C979.692 180.75 984.192 180.15 989.092 180.15C992.792 180.15 996.442 180.5 1000.04 181.2C1003.64 181.8 1006.89 182.65 1009.79 183.75V178.35C1009.79 172.55 1008.14 168.05 1004.84 164.85C1001.54 161.55 996.792 159.9 990.592 159.9C986.392 159.9 982.242 160.7 978.142 162.3C974.142 163.8 969.992 166 965.692 168.9L960.592 158.4C970.692 151.6 981.192 148.2 992.092 148.2C1002.89 148.2 1011.29 150.95 1017.29 156.45C1023.29 161.95 1026.29 169.85 1026.29 180.15V208.5C1026.29 212 1027.74 213.8 1030.64 213.9V228C1029.04 228.3 1027.64 228.5 1026.44 228.6C1025.34 228.7 1024.24 228.75 1023.14 228.75C1019.94 228.75 1017.44 227.95 1015.64 226.35C1013.94 224.75 1012.89 222.7 1012.49 220.2L1012.04 215.25C1008.54 219.85 1004.19 223.4 998.992 225.9C993.892 228.3 988.392 229.5 982.492 229.5ZM986.992 217.35C990.992 217.35 994.742 216.65 998.242 215.25C1001.84 213.75 1004.64 211.7 1006.64 209.1C1008.74 207.3 1009.79 205.4 1009.79 203.4V193.05C1006.99 191.95 1003.99 191.1 1000.79 190.5C997.692 189.9 994.642 189.6 991.642 189.6C985.742 189.6 980.892 190.9 977.092 193.5C973.392 196 971.542 199.35 971.542 203.55C971.542 207.45 972.992 210.75 975.892 213.45C978.792 216.05 982.492 217.35 986.992 217.35ZM1081.26 229.5C1075.96 229.5 1071.06 228.45 1066.56 226.35C1062.06 224.15 1058.16 221.2 1054.86 217.5C1051.56 213.8 1048.96 209.5 1047.06 204.6C1045.26 199.6 1044.36 194.25 1044.36 188.55C1044.36 183.05 1045.21 177.9 1046.91 173.1C1048.71 168.2 1051.16 163.9 1054.26 160.2C1057.46 156.5 1061.16 153.6 1065.36 151.5C1069.66 149.3 1074.36 148.2 1079.46 148.2C1085.76 148.2 1091.31 149.75 1096.11 152.85C1100.91 155.85 1104.66 159.7 1107.36 164.4V118.5H1123.86V208.5C1123.86 210.4 1124.16 211.75 1124.76 212.55C1125.46 213.35 1126.66 213.8 1128.36 213.9V228C1126.66 228.3 1125.26 228.5 1124.16 228.6C1123.16 228.7 1122.31 228.75 1121.61 228.75C1118.31 228.75 1115.61 227.9 1113.51 226.2C1111.41 224.5 1110.26 222.3 1110.06 219.6L1109.76 213.75C1106.86 218.65 1102.91 222.5 1097.91 225.3C1092.91 228.1 1087.36 229.5 1081.26 229.5ZM1085.31 215.4C1087.71 215.4 1090.11 215 1092.51 214.2C1094.91 213.4 1097.11 212.3 1099.11 210.9C1101.11 209.5 1102.81 207.85 1104.21 205.95C1105.71 204.05 1106.76 202 1107.36 199.8V179.25C1106.46 176.75 1105.16 174.45 1103.46 172.35C1101.86 170.25 1100.01 168.45 1097.91 166.95C1095.81 165.45 1093.56 164.3 1091.16 163.5C1088.86 162.7 1086.51 162.3 1084.11 162.3C1080.81 162.3 1077.76 163.05 1074.96 164.55C1072.26 166.05 1069.91 168.05 1067.91 170.55C1065.91 173.05 1064.31 175.9 1063.11 179.1C1062.01 182.3 1061.46 185.6 1061.46 189C1061.46 192.6 1062.06 196 1063.26 199.2C1064.56 202.4 1066.31 205.2 1068.51 207.6C1070.71 210 1073.21 211.9 1076.01 213.3C1078.91 214.7 1082.01 215.4 1085.31 215.4Z" fill="black"/>
</svg>
