<?xml version="1.0" encoding="utf-8"?>
<!-- Generator: Adobe Illustrator 23.0.3, SVG Export Plug-In . SVG Version: 6.00 Build 0)  -->
<svg version="1.1" id="Layer_1" xmlns="http://www.w3.org/2000/svg" xmlns:xlink="http://www.w3.org/1999/xlink" x="0px" y="0px"
	 viewBox="0 0 5633.4 1331.6" style="enable-background:new 0 0 5633.4 1331.6;" xml:space="preserve">
<style type="text/css">
	.st0{enable-background:new    ;}
	.st1{fill:#292929;}
	.st2{fill:#FFBE70;}
	.st3{fill:#FFDA7D;}
	.st4{fill:#FFCC5C;}
	.st5{fill:#FFB048;}
	.st6{fill:#FFC36C;}
</style>
<g id="Group_1051" transform="translate(-14593.063 -8676.391)">
	<g id="Group_1040" transform="translate(14049.443 8676.391)">
		<g class="st0">
			<path class="st1" d="M2258.2,485.6v623h-144.2V853.1h-283v255.4h-144.2v-623H1831v245.6h283V485.6H2258.2z"/>
			<path class="st1" d="M2923.1,629.7v478.8h-131.7v-57c-18.4,20.8-40.4,36.6-65.9,47.6c-25.5,11-53.1,16.5-82.8,16.5
				c-62.9,0-112.7-18.1-149.5-54.3c-36.8-36.2-55.2-89.9-55.2-161.1V629.7h138.8v250.1c0,77.1,32.3,115.7,97,115.7
				c33.2,0,59.9-10.8,80.1-32.5c20.2-21.7,30.3-53.8,30.3-96.6V629.7H2923.1z"/>
			<path class="st1" d="M3501.1,653.3c36.5,20.5,65.1,49.3,85.9,86.3c20.8,37.1,31.2,80.3,31.2,129.5c0,49.3-10.4,92.4-31.2,129.5
				c-20.8,37.1-49.4,65.9-85.9,86.3s-77,30.7-121.5,30.7c-65.9,0-116-20.8-150.4-62.3v55.2h-132.6V448.2h138.8v232.3
				c35-38.6,83.1-57.9,144.2-57.9C3424.1,622.6,3464.6,632.8,3501.1,653.3z M3443.3,965.7c22.8-24,34.3-56.2,34.3-96.6
				c0-40.3-11.4-72.5-34.3-96.6c-22.8-24-52.1-36-87.7-36c-35.6,0-64.8,12-87.7,36c-22.8,24-34.3,56.2-34.3,96.6
				c0,40.4,11.4,72.5,34.3,96.6c22.8,24,52.1,36,87.7,36C3391.2,1001.8,3420.4,989.7,3443.3,965.7z"/>
			<path class="st1" d="M4336.4,485.6v623h-144.2V853.1h-283v255.4H3765v-623h144.2v245.6h283V485.6H4336.4z"/>
			<path class="st1" d="M4882.8,675.6c39.7,35.3,59.6,88.6,59.6,159.8v273.2h-129.9v-59.6c-26.1,44.5-74.8,66.8-146,66.8
				c-36.8,0-68.7-6.2-95.7-18.7c-27-12.5-47.6-29.7-61.9-51.6c-14.2-21.9-21.4-46.9-21.4-74.8c0-44.5,16.8-79.5,50.3-105
				c33.5-25.5,85.3-38.3,155.3-38.3h110.4c0-30.3-9.2-53.5-27.6-69.9c-18.4-16.3-46-24.5-82.8-24.5c-25.5,0-50.6,4-75.2,12
				c-24.6,8-45.5,18.8-62.7,32.5l-49.8-97c26.1-18.4,57.4-32.6,93.9-42.7c36.5-10.1,74-15.1,112.6-15.1
				C4786.1,622.6,4843.1,640.3,4882.8,675.6z M4764.5,1005.8c18.4-11,31.4-27.1,39.2-48.5v-49h-95.2c-57,0-85.4,18.7-85.4,56.1
				c0,17.8,7,31.9,20.9,42.3c13.9,10.4,33.1,15.6,57.4,15.6C4725,1022.2,4746.1,1016.7,4764.5,1005.8z"/>
			<path class="st1" d="M5594.8,629.7v478.8h-131.7v-57c-18.4,20.8-40.4,36.6-65.9,47.6c-25.5,11-53.1,16.5-82.8,16.5
				c-62.9,0-112.7-18.1-149.5-54.3c-36.8-36.2-55.2-89.9-55.2-161.1V629.7h138.8v250.1c0,77.1,32.3,115.7,97,115.7
				c33.2,0,59.9-10.8,80.1-32.5c20.2-21.7,30.3-53.8,30.3-96.6V629.7H5594.8z"/>
			<path class="st1" d="M5812.9,1101c-38-9.8-68.2-22.1-90.8-36.9l46.3-99.7c21.4,13.7,47.2,24.8,77.4,33.4
				c30.3,8.6,59.9,12.9,89,12.9c58.7,0,88.1-14.5,88.1-43.6c0-13.6-8-23.4-24-29.4c-16-5.9-40.6-11-73.9-15.1
				c-39.2-5.9-71.5-12.8-97-20.5c-25.5-7.7-47.6-21.4-66.3-40.9c-18.7-19.6-28-47.5-28-83.7c0-30.3,8.7-57.1,26.3-80.5
				c17.5-23.4,43-41.7,76.5-54.7c33.5-13,73.1-19.6,118.8-19.6c33.8,0,67.5,3.7,101,11.1c33.5,7.4,61.3,17.7,83.2,30.7l-46.3,98.8
				c-42.1-23.7-88.1-35.6-137.9-35.6c-29.7,0-51.9,4.2-66.8,12.5c-14.8,8.3-22.2,19-22.2,32c0,14.8,8,25.2,24,31.2
				c16,5.9,41.5,11.6,76.5,16.9c39.2,6.5,71.2,13.5,96.1,20.9c24.9,7.4,46.6,20.9,65,40.5c18.4,19.6,27.6,46.9,27.6,81.9
				c0,29.7-8.9,56.1-26.7,79.2c-17.8,23.1-43.8,41.1-77.9,53.8c-34.1,12.8-74.6,19.1-121.5,19.1
				C5889.7,1115.7,5850.8,1110.8,5812.9,1101z"/>
		</g>
		<path id="Path_4493" class="st2" d="M856.9,839.8l646.3,78.2l-4.2,174.3c0,0-0.8,15.5-9.8,22.9c-9.1,7.4-26.5,6.6-26.5,6.6H846.5
			L856.9,839.8z"/>
		<path id="Path_4494" class="st3" d="M841.6,584.1l-48.1,537.8H583.9c0,0-11-0.4-16.1-6.3s-4.5-17.5-4.5-17.5l-19.1-539.5
			L841.6,584.1z"/>
		<path id="Path_4495" class="st4" d="M1174.9,172l-61.3,657.3l388.3,32.1l24.2-394c0,0,3.6-20.2-3.4-37.2
			c-7-17-24.5-30.8-24.5-30.8L1174.9,172z"/>
		<path id="Path_4496" class="st5" d="M1111.3,128.2l-106.9-92c0,0-17.6-17.3-34.5-16.9C953.1,19.8,937,37.9,937,37.9L566.4,352.5
			c0,0-12.2,9-17.9,22.4c-5.7,13.4-4.8,31.3-4.8,31.3v90.4l541,76.7L1111.3,128.2z"/>
		<path id="Path_4497" class="st6" d="M1479.4,9.8c6.8,6.2,11.1,14.6,12.2,23.7v296.1l-271.6-196.1V19.8c0,0,2.7-9.1,8.5-14.1
			s14.8-5.8,14.8-5.8h210C1453.4,0,1468.1-0.4,1479.4,9.8z"/>
	</g>
</g>
</svg>
