<?xml version="1.0" encoding="UTF-8" standalone="no"?>
<svg width="190px" height="45px" viewBox="0 0 190 45" version="1.1" xmlns="http://www.w3.org/2000/svg" xmlns:xlink="http://www.w3.org/1999/xlink" xmlns:sketch="http://www.bohemiancoding.com/sketch/ns">
    <!-- Generator: Sketch 3.3.3 (12081) - http://www.bohemiancoding.com/sketch -->
    <title>logo - large</title>
    <desc>Created with Sketch.</desc>
    <defs></defs>
    <g id="Page-1" stroke="none" stroke-width="1" fill="none" fill-rule="evenodd" sketch:type="MSPage">
        <g id="Logged-out-(1920)" sketch:type="MSArtboardGroup" transform="translate(-30.000000, -12.000000)">
            <g id="logo---large" sketch:type="MSLayerGroup" transform="translate(29.500000, 12.000000)">
                <path d="M6.85760464,9.84855023 L21.7828349,13.9665544 C22.0814992,14.0464441 22.4655841,13.9149334 22.644414,13.6685046 L28.099648,6.18653158 C28.2766343,5.9308847 28.2133371,5.58121385 27.9570757,5.40422755 L20.231132,0.22369102 C19.9779433,0.0546936834 19.5723497,0.0632971842 19.3228482,0.242127093 L6.76972603,9.35507801 C6.52145358,9.54005327 6.56262747,9.76251522 6.85760464,9.84855023 L6.85760464,9.84855023 Z M31.2005955,3.03396309 L31.8968645,18.5018284 C31.9066971,18.8090963 32.154355,19.131113 32.4425723,19.2282097 L41.2488699,22.103008 C41.5456906,22.1908866 41.8572603,22.0212747 41.9482116,21.7293702 L44.4874734,12.7768132 C44.5685921,12.4849087 44.4358524,12.0977511 44.1875799,11.9189212 L31.6424467,2.79675228 C31.3898725,2.61792237 31.1913775,2.72423706 31.2005955,3.03396309 L31.2005955,3.03396309 Z M45.2034075,24.0719806 L30.7052797,29.5155384 C30.4195205,29.6212386 30.1866115,29.9561606 30.1866115,30.2603558 L30.1749353,39.5214098 C30.1816952,39.8305213 30.436113,40.0781792 30.7464536,40.0695757 L40.0425361,39.7180613 C40.3473459,39.7063851 40.6712062,39.4605708 40.7658447,39.1705099 L45.5659836,24.4216514 C45.6569349,24.1242161 45.4922393,23.966895 45.2034075,24.0719806 L45.2034075,24.0719806 Z M29.5179966,43.897519 L19.8642542,31.7911644 C19.6755917,31.55211 19.2829033,31.4310464 18.9940715,31.5250704 L10.1822432,34.3728291 C9.88849505,34.4760712 9.73424658,34.7937861 9.83687405,35.0893779 L13.040449,43.8225457 C13.1486073,44.1064612 13.4829148,44.3393702 13.788339,44.3393702 L29.2998364,44.3485883 C29.6083333,44.343672 29.7085027,44.1433333 29.5179966,43.897519 L29.5179966,43.897519 Z M5.33171233,35.0389859 L0.545707763,20.281524 C0.449840183,19.9890049 0.56783105,19.5987747 0.805656393,19.4125704 L8.12231925,13.6623592 C8.36936263,13.4749258 8.72026256,13.5247032 8.9083105,13.7680594 L14.3408067,21.2709266 C14.5190221,21.5161263 14.527011,21.9247926 14.3561701,22.1785959 L5.82702816,35.1028976 C5.6525,35.3603881 5.43065259,35.3296613 5.33171233,35.0389859 L5.33171233,35.0389859 Z" id="Fill-1" fill="#CF0000" sketch:type="MSShapeGroup"></path>
                <path d="M185.953607,19.3861454 L186.711944,19.3861454 L187.832858,22.6837443 L188.946396,19.3861454 L189.698588,19.3861454 L189.698588,23.2859893 L189.19344,23.2859893 L189.19344,20.9845529 C189.19344,20.9052778 189.195898,20.7737671 189.199585,20.5894064 C189.202658,20.4050457 189.203887,20.2071651 189.203887,19.9963794 L188.090963,23.2859893 L187.567378,23.2859893 L186.442778,19.9963794 L186.442778,20.1155993 C186.442778,20.2114669 186.445236,20.3577264 186.451381,20.5525342 C186.456298,20.7491857 186.458756,20.8923725 186.458756,20.9845529 L186.458756,23.2859893 L185.953607,23.2859893 L185.953607,19.3861454 L185.953607,19.3861454 Z M185.481644,19.3861454 L185.481644,19.8507344 L184.166537,19.8507344 L184.166537,23.2859893 L183.63312,23.2859893 L183.63312,19.8507344 L182.319243,19.8507344 L182.319243,19.3861454 L185.481644,19.3861454 L185.481644,19.3861454 Z M122.502789,33.9254471 C120.255432,33.9254471 118.103328,33.0079452 118.103328,30.2056621 L118.103328,23.5613014 C119.107479,22.4993836 120.818347,21.6144521 122.618322,21.6144521 C126.427215,21.6144521 127.63785,24.9206545 127.63785,27.9927188 C127.63785,31.7979243 125.599435,33.9254471 122.502789,33.9254471 L122.502789,33.9254471 Z M123.739235,19.370782 C121.439028,19.370782 119.372344,20.4935388 118.103328,22.1183714 L118.248973,19.370782 L117.217167,19.370782 L112.936925,20.8475114 L112.936925,21.5554566 L115.149254,22.5921785 L115.149254,39.5607401 C115.149254,40.9194787 114.148175,41.0651237 112.788822,41.2457972 L112.788822,42.3974372 L120.463145,42.3974372 L120.463145,41.2457972 C119.107479,41.0651237 118.103328,40.9194787 118.103328,39.5607401 L118.103328,34.4244502 C119.044796,35.135468 120.405379,35.608046 122.176471,35.608046 C126.83711,35.608046 130.673657,32.2115068 130.673657,26.7519711 C130.673657,22.6782135 128.284956,19.370782 123.739235,19.370782 L123.739235,19.370782 Z M155.334363,13.5591172 C153.253545,13.6457667 152.146151,13.9708562 152.146151,15.9490468 L152.146151,35.3112253 L150.718584,35.3112253 L135.68028,17.2819749 L135.68028,31.6516648 C135.68028,33.6286263 136.787673,33.9531012 138.867262,34.043438 L138.867262,35.3112253 L130.543375,35.3112253 L130.543375,34.043438 C132.619277,33.9531012 133.72667,33.6286263 133.72667,31.6516648 L133.72667,15.5071956 C132.48285,13.9708562 132.066195,13.589844 130.543375,13.5591172 L130.543375,12.2894863 L135.869557,12.2894863 L150.193771,29.4516267 L150.193771,15.9490468 C150.193771,13.9708562 149.087607,13.6457667 147.008018,13.5591172 L147.008018,12.2894863 L155.334363,12.2894863 L155.334363,13.5591172 L155.334363,13.5591172 Z M180.241497,33.7472317 C179.501596,34.5725533 178.174814,35.608046 176.136398,35.608046 C173.892728,35.608046 171.854928,34.4551769 171.854928,31.4150685 L171.854928,21.2918208 L169.583604,21.2918208 L169.583604,20.2569425 C171.149441,19.3130156 172.417842,18.1914878 173.923455,16.3030194 L174.809616,16.3030194 L174.809616,19.6669882 L179.414332,19.6669882 L179.414332,21.2918208 L174.809616,21.2918208 L174.809616,30.3838775 C174.809616,32.5089422 175.72343,33.4497964 177.525249,33.4497964 C178.321073,33.4497964 179.088628,33.3016933 179.887525,32.9237538 L180.241497,33.7472317 L180.241497,33.7472317 Z M161.732295,21.2008695 C164.388933,21.2008695 165.777169,22.9154243 165.777169,24.9802645 L157.540546,24.9802645 C157.865021,22.7691648 159.398902,21.2008695 161.732295,21.2008695 L161.732295,21.2008695 Z M163.118073,33.0380575 C159.223145,33.0380575 157.451438,30.5270643 157.451438,26.4551503 L169.023147,26.4551503 L169.023147,25.6292142 C169.023147,22.0882591 166.778862,19.370782 162.467894,19.370782 C157.954129,19.370782 154.645468,22.8263166 154.645468,27.9927188 C154.645468,32.2115068 157.451438,35.608046 162.203029,35.608046 C166.36528,35.608046 168.404924,33.2439269 169.050186,31.08875 L168.194138,30.7046651 C167.219484,31.9171442 165.569456,33.0380575 163.118073,33.0380575 L163.118073,33.0380575 Z M75.5313623,28.8161967 L76.6221632,28.8161967 L75.5313623,35.3112253 L57.0627188,35.3112253 L57.0627188,34.043438 C59.2768912,33.9531012 60.4574144,33.6286263 60.4574144,31.6516648 L60.4574144,15.9490468 C60.4574144,13.9708562 59.2768912,13.6457667 57.0627188,13.5591172 L57.0627188,12.2894863 L67.1865811,12.2894863 L67.1865811,13.5591172 C64.9717941,13.6457667 63.7931145,13.9708562 63.7931145,15.9490468 L63.7931145,31.4734494 C63.7931145,33.2439269 64.7677683,33.6894654 67.1865811,33.6894654 L69.9821043,33.6894654 C72.9312614,33.6894654 73.6441229,32.2422336 75.5313623,28.8161967 L75.5313623,28.8161967 Z M104.839188,33.7767295 C101.296389,33.7767295 99.2315487,30.589747 99.2315487,26.7820833 C99.2315487,23.5613014 100.70582,21.2008695 103.656821,21.2008695 C107.201463,21.2008695 109.268761,24.3890811 109.268761,28.1955156 C109.268761,31.4150685 107.791417,33.7767295 104.839188,33.7767295 L104.839188,33.7767295 Z M104.542981,19.370782 C99.9991039,19.370782 96.1035616,22.617989 96.1035616,27.7837766 C96.1035616,32.3301123 99.2911587,35.608046 103.953642,35.608046 C108.496904,35.608046 112.395519,32.360839 112.395519,27.1938223 C112.395519,22.6481012 109.207922,19.370782 104.542981,19.370782 L104.542981,19.370782 Z M86.5407705,33.7755004 C82.9979718,33.7755004 80.9319026,30.589747 80.9319026,26.7820833 C80.9319026,23.5613014 82.4080175,21.2008695 85.3590183,21.2008695 C88.8999734,21.2008695 90.9672717,24.3890811 90.9672717,28.1955156 C90.9672717,31.4150685 89.4917713,33.7767295 86.5407705,33.7755004 L86.5407705,33.7755004 Z M86.2457934,19.370782 C81.6994578,19.370782 77.8026865,22.617989 77.8026865,27.7837766 C77.8026865,32.3301123 80.990898,35.608046 85.6521518,35.608046 C90.1997165,35.608046 94.0971024,32.360839 94.0971024,27.1938223 C94.0971024,22.6481012 90.9131925,19.370782 86.2457934,19.370782 L86.2457934,19.370782 Z" id="Fill-2" fill="#0A0B09" sketch:type="MSShapeGroup"></path>
            </g>
        </g>
    </g>
</svg>