<svg height="24" viewBox="0 0 92 24" width="92" xmlns="http://www.w3.org/2000/svg"><path d="m35.718 23.49v-17.899h3.389v17.9h-3.39zm14.602-14.67c-.59-.34-1.312-.51-2.165-.51-.804 0-1.5.17-2.09.51s-.885.837-.885 1.491c0 .529.17.957.508 1.284.34.328.74.592 1.205.793a7 7 0 0 0 1.488.453c.527.101.979.19 1.355.265.729.176 1.413.39 2.053.642s1.192.58 1.657.982c.464.402.829.893 1.092 1.472.263.58.395 1.284.395 2.115 0 1.007-.213 1.869-.64 2.587a5.419 5.419 0 0 1 -1.657 1.756c-.678.453-1.45.78-2.316.981s-1.739.302-2.617.302c-1.482 0-2.78-.226-3.898-.68-1.117-.453-2.115-1.283-2.994-2.492l2.561-2.114a10.511 10.511 0 0 0 1.845 1.472c.678.429 1.507.642 2.486.642.427 0 .86-.043 1.3-.132a4.008 4.008 0 0 0 1.167-.415c.338-.189.614-.428.828-.718.213-.289.32-.623.32-1 0-.504-.157-.919-.47-1.246a3.425 3.425 0 0 0 -1.13-.775 8.217 8.217 0 0 0 -1.394-.453c-.49-.113-.922-.207-1.299-.283a22.13 22.13 0 0 1 -2.071-.604 6.28 6.28 0 0 1 -1.732-.906 4.176 4.176 0 0 1 -1.205-1.435c-.302-.58-.452-1.297-.452-2.153 0-.93.194-1.743.583-2.435a5.198 5.198 0 0 1 1.544-1.719 6.974 6.974 0 0 1 2.185-1.02 9.18 9.18 0 0 1 2.466-.339c1.205 0 2.36.227 3.464.68 1.105.453 1.984 1.208 2.636 2.265l-2.636 2.002a5.203 5.203 0 0 0 -1.487-1.265zm9.207 5.72c0 .907.138 1.744.414 2.512s.665 1.422 1.168 1.964c.502.541 1.117.969 1.845 1.283.728.315 1.544.472 2.448.472s1.72-.157 2.447-.472a5.4 5.4 0 0 0 1.846-1.283 5.662 5.662 0 0 0 1.167-1.964 7.371 7.371 0 0 0 .414-2.511c0-.907-.138-1.743-.414-2.511a5.673 5.673 0 0 0 -1.167-1.964 5.414 5.414 0 0 0 -1.846-1.284c-.728-.314-1.543-.472-2.447-.472s-1.72.158-2.448.472a5.408 5.408 0 0 0 -1.845 1.284c-.503.542-.892 1.196-1.168 1.964a7.357 7.357 0 0 0 -.414 2.51zm-3.615 0c0-1.308.245-2.53.734-3.662a9.55 9.55 0 0 1 2.015-2.983 9.395 9.395 0 0 1 3.013-2.02c1.154-.492 2.397-.737 3.728-.737 1.33 0 2.573.245 3.728.736a9.41 9.41 0 0 1 5.027 5.004c.49 1.133.735 2.354.735 3.663s-.245 2.536-.735 3.681a9.27 9.27 0 0 1 -2.014 2.984 9.555 9.555 0 0 1 -3.013 2.001c-1.155.49-2.398.736-3.728.736-1.331 0-2.574-.245-3.728-.736a9.54 9.54 0 0 1 -3.013-2.001 9.26 9.26 0 0 1 -2.015-2.984 9.274 9.274 0 0 1 -.734-3.681zm35.448-5.493c.415.819.622 1.732.622 2.738v11.705h-3.615v-11.177c0-1.233-.384-2.247-1.149-3.04-.766-.793-1.776-1.19-3.031-1.19-1.155 0-2.141.391-2.957 1.171s-1.224 1.8-1.224 3.059v11.177h-3.616v-11.706c0-1.006.207-1.92.621-2.738a6.371 6.371 0 0 1 1.695-2.095 7.887 7.887 0 0 1 2.486-1.34 9.386 9.386 0 0 1 2.994-.473c1.054 0 2.051.158 2.994.472.94.315 1.77.762 2.485 1.34a6.371 6.371 0 0 1 1.694 2.096zm-58.653 0c.414.819.622 1.732.622 2.738v11.705h-3.616v-11.177c0-1.233-.383-2.247-1.148-3.04-.766-.793-1.777-1.19-3.032-1.19-1.155 0-2.14.391-2.956 1.171s-1.224 1.8-1.224 3.059v11.177h-3.615v-11.706c0-1.006.207-1.92.621-2.738a6.374 6.374 0 0 1 1.695-2.095 7.892 7.892 0 0 1 2.485-1.34 9.387 9.387 0 0 1 2.994-.473c1.055 0 2.053.158 2.994.472a7.89 7.89 0 0 1 2.486 1.34 6.375 6.375 0 0 1 1.694 2.096zm-32.059 10.988c-.415-.818-.622-1.731-.622-2.738v-11.706h3.616v11.179c0 1.233.383 2.247 1.148 3.04.766.792 1.777 1.189 3.032 1.189 1.155 0 2.14-.39 2.956-1.17.816-.781 1.224-1.8 1.224-3.06v-11.177h3.615v11.706c0 1.007-.207 1.92-.621 2.738a6.374 6.374 0 0 1 -1.695 2.096 7.89 7.89 0 0 1 -2.486 1.34 9.387 9.387 0 0 1 -2.993.472 9.386 9.386 0 0 1 -2.994-.472 7.89 7.89 0 0 1 -2.486-1.34 6.377 6.377 0 0 1 -1.694-2.096zm35.07-16.468v-3.553h3.542v3.553z" fill-rule="evenodd"/></svg>