<?xml version="1.0" encoding="UTF-8" standalone="no"?>
<!-- Created with Inkscape (http://www.inkscape.org/) -->

<svg
   xmlns:dc="http://purl.org/dc/elements/1.1/"
   xmlns:cc="http://creativecommons.org/ns#"
   xmlns:rdf="http://www.w3.org/1999/02/22-rdf-syntax-ns#"
   xmlns:svg="http://www.w3.org/2000/svg"
   xmlns="http://www.w3.org/2000/svg"
   xmlns:sodipodi="http://sodipodi.sourceforge.net/DTD/sodipodi-0.dtd"
   xmlns:inkscape="http://www.inkscape.org/namespaces/inkscape"
   width="302.67999"
   height="231.67165"
   viewBox="0 0 80.084082 61.296454"
   version="1.1"
   id="svg76"
   inkscape:version="0.92.0 r15299"
   sodipodi:docname="corelogic.svg">
  <defs
     id="defs70" />
  <sodipodi:namedview
     id="base"
     pagecolor="#ffffff"
     bordercolor="#666666"
     borderopacity="1.0"
     inkscape:pageopacity="0.0"
     inkscape:pageshadow="2"
     inkscape:zoom="2.3207043"
     inkscape:cx="150.34"
     inkscape:cy="114.83583"
     inkscape:document-units="mm"
     inkscape:current-layer="layer1"
     showgrid="false"
     fit-margin-top="0"
     fit-margin-left="0"
     fit-margin-right="0"
     fit-margin-bottom="0"
     units="px"
     inkscape:window-width="1280"
     inkscape:window-height="744"
     inkscape:window-x="-4"
     inkscape:window-y="-4"
     inkscape:window-maximized="1" />
  <metadata
     id="metadata73">
    <rdf:RDF>
      <cc:Work
         rdf:about="">
        <dc:format>image/svg+xml</dc:format>
        <dc:type
           rdf:resource="http://purl.org/dc/dcmitype/StillImage" />
        <dc:title></dc:title>
      </cc:Work>
    </rdf:RDF>
  </metadata>
  <g
     inkscape:label="Layer 1"
     inkscape:groupmode="layer"
     id="layer1"
     transform="translate(-34.305877,-157.23005)">
    <g
       id="g103"
       transform="translate(0.26458335,-0.26458057)">
      <polygon
         transform="matrix(0.26458333,0,0,0.26458333,23.688161,147.14148)"
         id="polygon17"
         points="113.31,80.22 182.75,120.32 252.2,80.22 182.75,40.13 "
         class="cls-2"
         style="fill:#e10600" />
      <polygon
         transform="matrix(0.26458333,0,0,0.26458333,23.688161,147.14148)"
         id="polygon19"
         points="182.75,200.51 182.75,120.32 113.31,160.42 "
         class="cls-3"
         style="fill:#5a5a5a" />
      <polygon
         transform="matrix(0.26458333,0,0,0.26458333,23.688161,147.14148)"
         id="polygon21"
         points="182.75,120.32 182.75,200.51 252.2,160.42 "
         class="cls-4"
         style="fill:#828282" />
      <polygon
         transform="matrix(0.26458333,0,0,0.26458333,23.688161,147.14148)"
         id="polygon23"
         points="113.31,80.22 113.31,160.42 182.75,120.32 "
         class="cls-4"
         style="fill:#828282" />
      <path
         id="path25"
         d="m 34.305877,210.78966 v -0.0291 c 0,-3.01889 2.25954,-5.4901 5.47423,-5.4901 a 5.5324375,5.5324375 0 0 1 4.1566,1.66687 l -1.19856,1.36525 c -0.84931,-0.79375 -1.75948,-1.32291 -2.97127,-1.32291 -2.01877,0 -3.50573,1.66952 -3.50573,3.7465 v 0.0317 c 0,2.07698 1.47373,3.76237 3.50573,3.76237 1.30439,0 2.13783,-0.51594 3.048,-1.36525 l 1.19856,1.21179 c -1.1086,1.15359 -2.32039,1.88119 -4.30742,1.88119 -3.09562,0.003 -5.40014,-2.40771 -5.40014,-5.45835 z m 10.78442,1.32291 v -0.0291 a 4.270375,4.270375 0 0 1 8.5381,-0.0317 v 0.0317 a 4.1857083,4.1857083 0 0 1 -4.29154,4.16719 4.1407292,4.1407292 0 0 1 -4.24656,-4.14073 z m 6.70454,0 v -0.0291 c 0,-1.41288 -1.01865,-2.57969 -2.45798,-2.57969 -1.43934,0 -2.413,1.15357 -2.413,2.54794 v 0.0317 c 0,1.39435 1.016,2.56381 2.4421,2.56381 1.48696,-0.003 2.42888,-1.15624 2.42888,-2.53736 z m 3.54806,-4.04812 h 1.83621 v 1.80446 c 0.50006,-1.19857 1.42346,-2.01877 2.83633,-1.95792 v 1.93675 h -0.10848 c -1.60602,0 -2.72785,1.05833 -2.72785,3.175 v 3.048 h -1.83621 z m 5.929311,4.03225 v -0.0291 c 0,-2.29129 1.624539,-4.16983 3.91319,-4.16983 2.54794,0 3.839099,2.00025 3.839099,4.30742 0,0.16668 -0.0159,0.33337 -0.0317,0.51329 h -5.88168 c 0.195789,1.30439 1.121831,2.03464 2.304521,2.03464 a 2.9104167,2.9104167 0 0 0 2.169578,-0.95514 l 1.076852,0.95514 a 4.0507708,4.0507708 0 0 1 -3.275542,1.50019 c -2.323039,-0.003 -4.114268,-1.68539 -4.114268,-4.15925 z m 5.931961,-0.59002 c -0.121711,-1.18269 -0.820211,-2.11667 -2.032003,-2.11667 -1.124479,0 -1.912937,0.86519 -2.07962,2.11667 z"
         class="cls-2"
         inkscape:connector-curvature="0"
         style="fill:#e10600;stroke-width:0.26458332" />
      <path
         id="path27"
         d="m 71.085606,205.45036 h 1.865313 v 8.91911 h 5.582708 v 1.69862 h -7.448021 z m 8.024813,6.65957 v -0.0318 a 4.2703999,4.2703999 0 0 1 8.54075,-0.0291 v 0.0291 a 4.1883542,4.1883542 0 0 1 -4.29419,4.17248 4.1407292,4.1407292 0 0 1 -4.24656,-4.14073 z m 6.704539,0 v -0.0318 c 0,-1.41023 -1.016,-2.57704 -2.457979,-2.57704 -1.441982,0 -2.410352,1.15093 -2.410352,2.54793 v 0.0291 c 0,1.397 1.016,2.56381 2.442102,2.56381 1.486958,0 2.426229,-1.15358 2.426229,-2.53206 z m 3.410479,5.461 0.68263,-1.38113 a 5.2652083,5.2652083 0 0 0 2.852201,0.84931 c 1.63777,0 2.53207,-0.84931 2.53207,-2.45798 v -0.62177 c -0.66675,0.86519 -1.50019,1.47109 -2.820461,1.47109 -1.88119,0 -3.640669,-1.39436 -3.640669,-3.7465 v -0.0291 c 0,-2.38125 1.775359,-3.76237 3.640669,-3.76237 a 3.4581042,3.4581042 0 0 1 2.807232,1.36525 v -1.19856 h 1.83356 v 6.37116 c 0,1.34938 -0.346602,2.3495 -1.016,3.0189 -0.727602,0.7276 -1.852081,1.07685 -3.291422,1.07685 a 6.9003333,6.9003333 0 0 1 -3.57981,-0.95514 z m 6.085422,-5.90021 v -0.0317 c 0,-1.3044 -1.076862,-2.19869 -2.3495,-2.19869 -1.272651,0 -2.275422,0.87842 -2.275422,2.19869 v 0.0317 a 2.1828125,2.1828125 0 0 0 2.275422,2.19869 c 1.27,0 2.346849,-0.89694 2.346849,-2.19869 z m 3.987268,-6.58548 h 1.971143 v 1.74625 h -1.971143 z m 0.0741,2.97392 h 1.838863 v 8.00893 h -1.836213 z m 3.717393,4.05077 v -0.0318 a 4.1327917,4.1327917 0 0 1 4.16984,-4.18571 4.0428333,4.0428333 0 0 1 3.20146,1.38112 l -1.15358,1.22767 c -0.56092,-0.59002 -1.1536,-1.00012 -2.06375,-1.00012 -1.32292,0 -2.32041,1.15093 -2.32041,2.54793 v 0.0291 c 0,1.4261 0.98691,2.56381 2.39712,2.56381 0.86519,0 1.50285,-0.39423 2.07963,-0.9869 l 1.10597,1.09273 a 4.1989375,4.1989375 0 0 1 -7.40834,-2.64583 z"
         class="cls-4"
         inkscape:connector-curvature="0"
         style="fill:#828282;stroke-width:0.26458332" />
      <path
         id="path29"
         d="m 111.40546,207.87924 v 0 a 1.2276667,1.2276667 0 1 1 2.45533,0 v 0 a 1.2276667,1.2276667 0 1 1 -2.45533,0 z m 2.31246,0 v 0 a 1.0768542,1.0768542 0 0 0 -1.08479,-1.09273 1.0900833,1.0900833 0 0 0 -1.08744,1.09802 v 0 a 1.0874375,1.0874375 0 1 0 2.17223,0 z m -1.56369,-0.64823 h 0.56356 c 0.26459,0 0.4789,0.13494 0.4789,0.39423 a 0.37835417,0.37835417 0 0 1 -0.29104,0.38365 l 0.33337,0.47095 h -0.28839 l -0.29634,-0.42862 h -0.26458 v 0.42862 h -0.23812 z m 0.5424,0.62177 c 0.16139,0 0.26458,-0.0847 0.26458,-0.20373 0,-0.11906 -0.0926,-0.20637 -0.26458,-0.20637 h -0.30427 v 0.4101 z"
         class="cls-4"
         inkscape:connector-curvature="0"
         style="fill:#828282;stroke-width:0.26458332" />
    </g>
  </g>
</svg>
