<svg xmlns="http://www.w3.org/2000/svg" viewBox="0 0 900 132"><defs><style>.a{fill:#c0321e;}.b{fill:#fff;}</style></defs><title>Outpost</title><path class="a" d="M459,0c4.17694,0.97587,8.325,2.11014,12.53986,2.8779,3.42276,0.62348,4.48471,2.283,4.38559,5.77447-0.22543,7.94022-.05743,8.05844,7.48972,10.36421a62.78086,62.78086,0,0,0,35.74921.75225v87.07944a81.41451,81.41451,0,0,1-41.3089-2.01353c-1.20776-.38653-2.40915-3.44028-2.209-5.0843,0.61111-5.02-1.85727-7.285-6.09842-8.79188C458.06879,86.88,446.274,87.47633,434.47446,88.5578a4.25707,4.25707,0,0,0-2.81982,3.02595C431.61783,105.05542,431.842,118.5278,432,132H410c0-40.45857.109-80.91781-.141-121.37483-0.03052-4.93412,1.5574-6.78912,6.097-7.45156C421.67,2.33979,427.3215,1.07744,433,0h26Zm39.46747,87.95853c0-15.12315.0755-28.57323-.15317-42.01812-0.017-1.00068-2.08417-2.53557-3.42288-2.84255-4.843-1.11055-9.77591-1.84023-14.68686-2.64-3.44907-.56168-4.97284-2.11519-4.81927-5.98121,0.3002-7.55608-.28568-8.16765-7.598-10.46452-11.01483-3.45984-22.30594-3.12632-33.576-1.77833-1.0314.12336-2.53308,2.383-2.57693,3.69211-0.25058,7.47629-.12634,14.96518-0.12784,22.44978-0.00119,6.08862-.00021,12.17725-0.00021,18.62842a51.37949,51.37949,0,0,1,6.60815-.44816c10.89014,0.76344,21.77267,1.6379,32.65533,2.50558,4.11157,0.32781,5.71213,2.50226,5.118,6.64894-0.4017,2.80357-.514,5.86477,3.12076,6.904C485.153,84.37142,491.33225,86.00665,498.46747,87.95853Z"/><path class="b" d="M602,132c-2.15509-.69191-4.29291-1.44394-6.46783-2.06651-24.07147-6.8903-39.67-31.14838-36.7417-57.17078,2.7453-24.39653,23.821-44.08144,47.92285-45.89039,30.93152-2.32154,53.19159,21.48647,56.276,43.88954,4.01782,29.18257-12.70886,53.52142-41.37115,60.33006A6.76273,6.76273,0,0,0,620,132H602ZM642.3523,80.52411c0.89923-16.44888-12.70764-31.519-29.3399-32.49506-16.84338-.98846-32.35883,12.3494-33.15228,28.49937-0.91748,18.67507,11.95758,33.44137,29.905,34.29757C626.75861,111.63667,641.39551,98.02624,642.3523,80.52411Z"/><path class="b" d="M0,70c1.23761-3.5475,2.31584-7.16031,3.73864-10.63192C13.09364,36.54194,37.653,23.05186,61.614,27.49834a52.80151,52.80151,0,0,1,3.56377,103.20239C63.76481,131.05165,62.39169,131.5632,61,132H44a11.74094,11.74094,0,0,0-2.20694-.92638C29.015,128.52933,19,121.67056,10.82835,111.69827,5.10544,104.71425,2.39326,96.4536,0,88V70Zm21.16822,9.17194a31.4139,31.4139,0,1,0,31.72622-31.1705A31.54384,31.54384,0,0,0,21.16822,79.17194Z"/><path class="b" d="M188,132c-9.00583-2.72685-17.22739-6.70574-23.60608-13.95586-6.268-7.12434-10.34192-15.26044-10.45534-24.75952-0.25645-21.4799-.07663-42.965-0.057-64.448a8.96032,8.96032,0,0,1,.38875-1.69234H175c0,1.931,0,3.71263,0,5.49424q0.00007,27.97816.0097,55.9563c0.02487,12.58073,8.99443,22.14179,20.75295,22.23215,11.6787,0.08976,20.98273-9.524,21.045-22.01457,0.093-18.65164.02464-37.30408,0.02492-55.95619,0-1.7961,0-3.59221,0-5.70373H238v9.45974q0,25.97971-.00087,51.95943c-0.00522,21.185-11.86646,36.71512-32.40138,42.47758A7.11731,7.11731,0,0,0,204,132H188Z"/><path class="b" d="M737,132c-7.23077-2.69165-13.88892-6.20479-18.602-12.62891a30.72712,30.72712,0,0,1-6.169-19.17583c6.58166,0,12.8678-.14874,19.13165.15773,0.95758,0.04686,2.10364,2.07415,2.66278,3.39674,2.15466,5.09675,7.004,7.95209,11.93365,6.78993,5.34662-1.26044,9.1673-6.13277,7.90759-11.48721a11.9935,11.9935,0,0,0-5.25391-6.95653c-4.15143-2.31907-8.96368-3.44576-13.48041-5.12228-14.699-5.45592-23.32318-16.70592-22.96021-29.90834,0.46033-16.74247,14.535-30.20081,31.61407-30.2295,17.13959-.02878,31.19482,13.40591,31.55341,30.18082a4.29665,4.29665,0,0,1-.47272,1.19817H755.191c-1.54492-2.61092-2.53412-5.17268-4.27014-7.0401a9.77892,9.77892,0,0,0-14.93713.53877,9.95215,9.95215,0,0,0,1.9046,14.8657,60.1304,60.1304,0,0,0,9.41156,4.44211c4.11725,1.74746,8.53894,2.91417,12.40863,5.08214,10.90192,6.10754,17.21893,14.95475,15.45679,28.16386-1.764,13.2235-9.41772,21.5926-21.49341,26.38271-1.21179.48068-2.44739,0.90146-3.67194,1.35H737Z"/><path class="b" d="M316,132a2.89146,2.89146,0,0,0,.35132-0.92735c0.01639-27.46255.01517-54.92513,0.01517-82.87846h-25.828V27.19141h73.10266V47.81632H338V132H316Z"/><path class="b" d="M853,132V48.23331H826.89465V27H900V48H874v84H853Z"/></svg>