<?xml version="1.0" standalone="no"?>
<!DOCTYPE svg PUBLIC "-//W3C//DTD SVG 20010904//EN"
 "http://www.w3.org/TR/2001/REC-SVG-20010904/DTD/svg10.dtd">
<svg version="1.0" xmlns="http://www.w3.org/2000/svg"
 width="260.000000pt" height="260.000000pt" viewBox="0 0 260.000000 260.000000"
 preserveAspectRatio="xMidYMid meet">
<metadata>
Created by potrace 1.11, written by Peter Selinger 2001-2013
</metadata>
<g transform="translate(0.000000,260.000000) scale(0.100000,-0.100000)"
fill="#000000" stroke="none">
<path d="M1158 2113 l-3 -168 -417 -3 -418 -2 0 -810 0 -810 980 0 980 0 0
980 0 980 -560 0 -560 0 -2 -167z m1022 -813 l0 -880 -880 0 -880 0 0 710 0
710 420 0 420 0 0 170 0 170 460 0 460 0 0 -880z"/>
<path d="M1220 1558 c-150 -43 -216 -233 -126 -366 39 -58 89 -93 193 -132
100 -38 133 -71 133 -134 0 -76 -71 -120 -158 -97 -48 13 -80 52 -89 108 -7
46 -16 53 -70 53 -61 0 -73 -7 -73 -44 0 -140 108 -254 251 -264 150 -10 271
88 286 232 13 129 -55 216 -221 281 -122 49 -161 86 -153 148 8 55 34 79 96
85 45 4 53 2 80 -25 16 -17 33 -46 36 -67 l7 -37 67 3 66 3 -2 48 c-8 148
-167 250 -323 205z"/>
</g>
</svg>
