<svg width="90px" height="90px" viewBox="0 0 90 90" version="1.1" xmlns="http://www.w3.org/2000/svg" xmlns:xlink="http://www.w3.org/1999/xlink">
    <defs>
        <polygon id="path-1" points="0 90 90 90 90 0 0 0"></polygon>
    </defs>
    <g id="Nav" stroke="none" stroke-width="1" fill="none" fill-rule="evenodd">
        <g id="Navigation" transform="translate(-132.000000, -67.000000)">
            <g id="Logo" transform="translate(132.000000, 67.000000)">
                <mask id="mask-2" fill="white">
                    <use xlink:href="#path-1"></use>
                </mask>
                <g id="Clip-2"></g>
                <path d="M6.33622382,49.5063212 L0.346395705,50.2881488 L0.500533506,51.4741978 L6.49036162,50.6940337 L6.33622382,49.5063212 Z M15.9557486,12.1316354 L19.1661241,15.8827443 L20.0660899,15.1075706 L16.854057,11.3581251 L18.3026209,10.1072009 L17.5733668,9.25883484 L13.779588,12.5308665 L14.5071847,13.3825595 L15.9557486,12.1316354 Z M1.1618344,44.6989132 L6.08761447,44.8120287 L6.1141328,43.6226527 L1.18835273,43.5095372 L1.23144502,41.5932279 L0.1160177,41.5682759 L0,46.5886071 L1.11708471,46.6152225 L1.1618344,44.6989132 Z M9.20186102,23.9006358 L8.31349691,23.4864335 L4.93075226,30.7740648 L5.81911636,31.1899305 L9.20186102,23.9006358 Z M12.3708016,19.4176031 L13.0321025,18.8653334 C13.398387,18.5575928 13.7762732,18.5209966 14.0497435,18.7405737 C14.3812226,19.0083912 14.407741,19.4791513 14.0132808,19.9748632 C13.4812568,20.6402484 12.8000671,20.6302676 12.3028484,20.2959116 L11.8470646,21.332249 C12.5763187,21.7996821 13.8226803,21.892836 14.8254047,20.6385849 C15.7054818,19.5373725 15.4601872,18.3413426 14.7359053,17.7591306 C14.0712896,17.2234955 13.1448054,17.2351397 12.2912466,17.962073 L11.6365753,18.5193331 C11.291837,18.8137661 10.9537283,18.8137661 10.6951746,18.6058332 C10.3819268,18.3529868 10.3305475,17.8306595 10.688545,17.3831879 C11.1675323,16.7826778 11.744306,16.8957933 12.0393225,17.0571492 L12.4486992,16.0274656 C11.832148,15.7064173 10.7879887,15.5899749 9.87144889,16.7377643 C9.15711133,17.6310439 9.19191664,18.8986027 10.0305589,19.5723052 C10.7415816,20.1461999 11.6150292,20.0497191 12.3708016,19.4176031 Z M6.86493306,37.3414165 L7.1168572,36.1886367 L4.63573582,35.6430208 L1.67231228,32.8018261 L1.39055501,34.0976638 L3.43743872,35.9391173 L0.810466505,36.7525506 L0.513792672,38.104946 L4.38546906,36.7941372 L6.86493306,37.3414165 Z M11.6879546,65.3391616 L10.7714148,65.9612968 L12.2315804,68.128789 L11.0747182,68.9139435 L9.75211639,66.9527207 L8.88529843,67.5415866 L10.2079002,69.5028094 L9.06429717,70.2796466 L7.60247415,68.1121544 L6.68593432,68.735953 L8.80574344,71.879898 L13.8077637,68.4814431 L11.6879546,65.3391616 Z M7.85771309,56.2516635 C7.36215177,54.6231332 6.03292041,54.1191039 5.07660308,54.1706713 L5.07991787,55.3234511 C5.66497856,55.3134704 6.45555631,55.599586 6.75720233,56.5893464 C7.0422744,57.5208857 6.62958286,58.5971462 5.39813785,58.9747523 C4.08548044,59.3773104 3.18717196,58.6503771 2.92364604,57.7837128 C2.61702784,56.7773178 3.09104301,56.1402114 3.60317829,55.8308073 L2.94519219,54.8693257 C2.07671683,55.3866627 1.35077751,56.5128271 1.83970924,58.1164054 C2.31372442,59.6700798 3.91311129,60.7097442 5.75447793,60.1441668 C7.59750196,59.5785894 8.35161701,57.8718764 7.85771309,56.2516635 Z M48.5020282,83.9965622 L48.6594808,85.0961112 L51.2417034,84.725159 L51.4405908,86.1124871 L49.1020055,86.45017 L49.2511711,87.4914979 L51.5880991,87.1554783 L51.7853291,88.5278353 L49.2031066,88.8987875 L49.3605592,90 L53.1062735,89.461038 L52.2477426,83.4559367 L48.5020282,83.9965622 Z M57.6624544,81.8224161 C56.0630675,82.389657 55.617228,83.7437158 55.7100422,84.700207 L56.85696,84.6469762 C56.8221547,84.0614372 57.0724215,83.2563212 58.0453128,82.9119843 C58.9601952,82.587609 60.0474468,82.9552344 60.4767123,84.1728893 C60.9324961,85.4720538 60.2479917,86.4035931 59.3960903,86.7046799 C58.406625,87.0556706 57.7519537,86.6065356 57.4237894,86.1058332 L56.4956478,86.8078146 C57.0459032,87.6545172 58.1977932,88.336537 59.7723191,87.7792769 C61.300438,87.2386515 62.2666997,85.5901597 61.6252875,83.7670043 C60.9855328,81.9438489 59.2535542,81.2601656 57.6624544,81.8224161 Z M69.3868717,75.5295357 L70.1409867,76.367921 L72.1414633,74.5597368 L75.4330512,78.2243457 L76.3064988,77.4342008 L72.2607958,72.9312066 L69.3868717,75.5295357 Z M39.4526476,89.8236729 L40.6376856,89.95675 L41.3072734,83.9316871 L40.1205781,83.7986101 L39.4526476,89.8236729 Z M18.5678042,73.7579477 L16.8059926,75.5461703 L14.9331354,73.6880822 L16.6932897,71.8998595 L15.8513326,71.0631377 L11.6034274,75.3781606 L12.4470418,76.2148824 L14.1541594,74.4798906 L16.0270166,76.3379787 L14.319899,78.0729706 L15.1568838,78.9030386 L19.404789,74.5863522 L18.5678042,73.7579477 Z M23.123985,77.3610084 L20.4207726,81.4963773 L18.8247005,80.4450688 L18.2114641,81.3832619 L22.3963883,84.1379565 L23.0096247,83.1997634 L21.4118953,82.1484548 L24.1151077,78.0130859 L23.123985,77.3610084 Z M34.528525,87.1355168 L33.0617297,82.2416088 L31.8717196,81.9022623 L30.2176387,87.7376904 L31.34964,88.0604022 L32.4435211,84.2011681 L33.7694377,88.7507393 L35.1782241,89.1532974 L36.8339624,83.3178693 L35.7019611,82.9968209 L34.528525,87.1355168 Z M24.8344174,8.84795949 L23.3908257,9.69299867 L22.9632176,7.29095815 L24.8344174,8.84795949 Z M23.8548965,12.2713663 L23.593028,10.8208266 L25.7128371,9.58154665 L26.8415236,10.5230667 L27.9453492,9.87764306 L22.9168106,5.80382227 L21.7384022,6.49249593 L22.7792467,12.9001553 L23.8548965,12.2713663 Z M77.7782662,15.8810809 L78.3865304,16.6096777 C79.0196556,17.3698802 79.0693774,18.3995638 78.0633382,19.2462664 C77.057299,20.0896422 76.056232,19.8501035 75.4231069,19.0899009 L74.8214722,18.367958 L77.7782662,15.8810809 Z M74.6142977,19.8251516 C75.7181233,21.1476046 77.3821486,21.4120952 78.8439716,20.1811326 C80.307452,18.953497 80.3538591,17.2634186 79.2483762,15.9393021 L77.8594786,14.2741757 L73.2303723,18.166679 L74.6142977,19.8251516 Z M84.2305077,60.6448691 L84.5785608,59.753253 L86.1414849,60.3654074 L85.7934318,61.258687 C85.576313,61.8159471 85.1404179,62.020553 84.6647454,61.8342452 C84.2039894,61.6529277 84.0133888,61.2021292 84.2305077,60.6448691 Z M81.467629,58.5339346 L83.6338452,59.3823008 L83.4100968,59.9561955 L80.8129577,60.2140322 L80.3356278,61.4400044 L83.1084508,61.1322638 C83.033868,61.9573414 83.4482169,62.6526689 84.2338225,62.9587461 C85.2100286,63.3413426 86.2376139,62.9371211 86.665222,61.8375721 L87.523753,59.6318202 L81.8985519,57.4260683 L81.467629,58.5339346 Z M65.5897781,81.0372616 L67.021768,80.1755878 L67.4808666,82.5709744 L65.5897781,81.0372616 Z M66.5262066,77.6005471 L66.8046491,79.0494233 L64.701414,80.3169821 L63.5594683,79.3871063 L62.4639297,80.0475011 L67.545505,84.0597738 L68.713969,83.3544655 L67.5935695,76.9584504 L66.5262066,77.6005471 Z M71.6989387,15.1574745 L69.6719437,13.5123096 L70.5503634,12.4210779 L72.3867579,13.9115407 L73.044744,13.093117 L71.2100069,11.6026541 L72.0784823,10.5263936 L74.1054773,12.1715585 L74.8015835,11.3065577 L71.8597061,8.91948839 L68.0609551,13.6337424 L71.0028325,16.0208118 L71.6989387,15.1574745 Z M82.9410538,36.671041 L85.4122308,36.0838385 L89.3104256,37.3513973 L89.0054647,36.0622135 L86.363576,35.2953571 L88.3806266,33.4173074 L88.0624066,32.0699024 L85.1404179,34.9360491 L82.6708983,35.5232515 L82.9410538,36.671041 Z M86.9171461,45.5705678 C85.5547669,45.6154813 84.8752346,44.6789516 84.8454015,43.7390951 C84.813911,42.8075558 85.4304622,41.8294396 86.7928415,41.7845261 C88.1552207,41.7396126 88.834753,42.6744788 88.8645861,43.6076815 C88.8960766,44.5475381 88.2795254,45.5256543 86.9171461,45.5705678 Z M86.744777,40.5618808 C84.8023092,40.6267559 83.6504192,42.1355168 83.7034559,43.7773547 C83.7581499,45.4258465 85.0061689,46.8564247 86.9486367,46.7932131 C88.8993914,46.728338 90.0512814,45.2195771 89.9982448,43.5694219 C89.9435507,41.9275839 88.6955317,40.4970058 86.744777,40.5618808 Z M84.7840779,30.1502662 L81.2902877,22.9142023 L80.4085532,23.3433757 L83.9023433,30.5794396 L84.7840779,30.1502662 Z M83.0918768,51.9998521 C82.8598414,53.2807186 83.4548465,54.4418158 84.9150121,54.7079698 L88.7568554,55.4099512 L88.9673446,54.2471906 L85.2100286,53.5618439 C84.4293952,53.418786 84.0962586,52.9147568 84.2238781,52.207785 C84.3498402,51.5174479 84.8404293,51.154813 85.6194053,51.2978708 L89.3767214,51.9832175 L89.5872106,50.8221204 L85.7470248,50.120139 C84.2868591,49.8523215 83.3222548,50.7289664 83.0918768,51.9998521 Z M31.2369371,8.57515156 L32.34242,8.17425699 L31.4789168,5.77720686 L32.2893833,1.74330918 L31.0479939,2.19410764 L30.5888953,4.91719651 L28.4989193,3.12065651 L27.1995211,3.59141653 L30.3717765,6.17810143 L31.2369371,8.57515156 Z M65.2997338,6.02506284 L66.1383761,6.48251516 C66.6621131,6.77029425 66.8096213,7.23107349 66.5659841,7.68020849 C66.3289766,8.11769925 65.8582762,8.25077628 65.3345391,7.96466065 L64.4958969,7.50554488 L65.2997338,6.02506284 Z M64.0119373,8.40048795 L64.550591,8.69492089 L64.4776655,11.3148751 L65.631213,11.9436641 L65.6759626,9.14405589 C66.481457,9.32038297 67.2223128,8.99434423 67.62506,8.25077628 C68.1272509,7.32589088 67.855438,6.25295727 66.8212231,5.68737986 L64.747821,4.55456159 L61.8573229,9.88263345 L62.8981674,10.4515378 L64.0119373,8.40048795 Z M43.1337235,1.33742422 L44.0635225,3.59307999 L42.394525,3.66294544 L43.1337235,1.33742422 Z M42.0481293,4.7558406 L44.4994176,4.6527059 L45.0596173,6.01674553 L46.3374694,5.96351471 L43.7867374,0 L42.4243581,0.0565577406 L40.3592431,6.21469762 L41.6022899,6.1614668 L42.0481293,4.7558406 Z M57.4536225,5.64412982 L59.6778476,6.38437084 L60.0192711,5.35302381 L57.786759,4.60945586 L58.2574594,3.18885849 L60.7650991,4.0239169 L61.116467,2.95930061 L57.4917426,1.7516265 L55.5890523,7.51053527 L56.7127666,7.88481443 L57.4536225,5.64412982 Z M52.9985428,5.69237025 L50.3351079,5.29147568 L51.064362,0.410875351 L49.9008702,0.23621174 L49.0058765,6.23299571 L52.8311458,6.8085539 L52.9985428,5.69237025 Z M78.7014356,70.4875795 L80.068787,71.5521958 L79.5003003,72.2891099 C79.138988,72.7548795 78.6566859,72.8347257 78.2323926,72.5036966 C77.8213585,72.1843117 77.7716366,71.6902632 78.1329488,71.2244936 L78.7014356,70.4875795 Z M76.1076113,68.4564912 L77.9058856,69.857127 L77.2429273,70.7154739 C76.5103584,71.6619843 76.6446075,72.7731776 77.5130829,73.450207 C78.3749286,74.1205826 79.4870411,73.9791882 80.2196101,73.0343413 L81.6035355,71.2427917 L76.8302358,67.5249519 L76.1076113,68.4564912 Z M49.8014265,49.1270516 L39.8371634,49.1270516 C38.8012911,49.1270516 38.2195452,48.5415126 38.6703568,47.5683868 L44.3005301,34.7713663 C44.6883607,33.9263271 45.0778487,33.9263271 45.4673367,34.7713663 L51.0958525,47.4369732 C51.4853405,48.3468875 51.1621484,49.1270516 49.8014265,49.1270516 Z M61.0004493,64.6504879 L64.9467085,64.6504879 C66.4333925,64.6504879 66.9505,63.9368623 66.3687541,62.6376978 L46.176702,19.1830549 C45.9844441,18.7938045 45.7905288,18.5975159 45.2734214,18.5975159 L44.7546565,18.5975159 C44.2375491,18.5975159 43.9789953,18.8570161 43.7834226,19.2479299 L23.5283896,63.0252846 C23.0742632,64.0000739 23.4604364,64.6504879 24.5626045,64.6504879 L29.9358814,64.6504879 C30.8408195,64.6504879 31.3579269,64.1963626 31.7441002,63.2847849 L34.7224403,56.4662502 C34.9180129,55.9472497 35.3041861,55.5563359 36.3400585,55.5563359 L53.0383203,55.5563359 C54.0741926,55.5563359 54.8498538,55.9472497 55.173046,56.6625388 L58.0204518,63.2847849 C58.4745783,64.2612376 59.4458121,64.6504879 61.0004493,64.6504879 Z" id="Fill-1" fill="#C4C626" mask="url(#mask-2)"></path>
            </g>
        </g>
    </g>
</svg>