<?xml version="1.0" encoding="UTF-8"?>
<svg id="Layer_1" data-name="Layer 1" xmlns="http://www.w3.org/2000/svg" viewBox="0 0 792 190"><defs><style>.cls-1{fill:#808285;}.cls-2{fill:#231f20;}.cls-3{fill:#4d4d4f;}.cls-4{fill:#696a6d;}.cls-5{fill:#fff;}</style></defs><title>STONELOCK_new logo</title><polygon class="cls-1" points="553.26 111.64 528.99 111.64 528.99 63.54 511.38 63.54 511.38 127.07 563.57 127.07 553.26 111.64"/><polygon class="cls-2" points="309.05 63.71 248.19 63.71 248.19 79.14 267.25 79.14 267.25 127.25 284.86 127.25 284.86 79.14 298.76 79.14 309.05 63.71"/><path class="cls-2" d="M303.11,95.56v-.18c0-18.24,14.7-33,34.31-33S371.54,77,371.54,95.2v.18c0,18.24-14.7,33-34.3,33S303.11,113.8,303.11,95.56Zm50.46,0v-.18c0-9.17-6.63-17.15-16.33-17.15s-16.07,7.8-16.07,17v.18c0,9.17,6.62,17.15,16.25,17.15S353.57,104.73,353.57,95.56Z"/><path class="cls-2" d="M379.8,63.61h16.43l26.13,33.58V63.61h17.43v63.54H424.36L397.23,92.3v34.85H379.8Z"/><path class="cls-2" d="M450.14,63.61h51.1v15H467.57v9.62h30.49V102.1H467.57v10.07h33.69v15H450.14Z"/><path class="cls-1" d="M558,95.56v-.18c0-18.24,14.71-33,34.31-33S626.38,77,626.38,95.2v.18c0,18.24-14.7,33-34.3,33S558,113.8,558,95.56Zm50.47,0v-.18c0-9.17-6.63-17.15-16.34-17.15S576,86,576,95.2v.18c0,9.17,6.63,17.15,16.25,17.15S608.42,104.73,608.42,95.56Z"/><polygon class="cls-1" points="739.04 63.65 717.96 95.26 739.07 127.14 759.99 127.14 739.02 95.26 759.99 63.65 739.04 63.65"/><rect class="cls-1" x="700.39" y="63.58" width="17.56" height="63.49"/><path class="cls-1" d="M632.5,95.57v-.18c0-18.51,14.24-33,33.47-33,13,0,21.32,5.45,26.95,13.25L679.68,85.86c-3.63-4.54-7.81-7.44-13.89-7.44-8.89,0-15.15,7.54-15.15,16.79v.18c0,9.53,6.26,17,15.15,17,6.62,0,10.52-3.08,14.33-7.7l13.25,9.43c-6,8.25-14.06,14.33-28.13,14.33C647.1,128.41,632.5,114.54,632.5,95.57Z"/><path class="cls-2" d="M222.23,87.57c-8.81-2-11-3.26-11-6.17v-.18c0-2.27,2.08-4.08,6.35-4.08,5.63,0,12,2.18,17.79,6.26l.34.25L244.19,71c-6.9-5.54-15.34-8.44-26.14-8.44-15.24,0-24.59,8.53-24.59,20.33V83c0,13.07,10.43,16.88,24,20,8.62,2,10.71,3.45,10.71,6.08v.18c0,2.73-2.54,4.36-7.27,4.36a32.74,32.74,0,0,1-20.6-7.62l-1.21-1-8.53,12.78c7.81,6.95,18.49,10.47,29.71,10.47,15.43,0,25.69-7.71,25.69-20.69v-.18C245.92,95.47,236.84,90.75,222.23,87.57Z"/><path class="cls-2" d="M55.27,139.85l-6.62-10.26a2,2,0,0,1-.32-1.2l.79-14.17-4.91-3.14a1.14,1.14,0,0,1-.52-.81L39.51,79.38a1.16,1.16,0,0,1,.76-1.24l5.78-2.08L44.17,62.12a1.7,1.7,0,0,1,0-.45c0-.22,2.08-22.09,2.16-23.07a32.66,32.66,0,0,1,1.31-6.49H31.77V159H50.88Z"/><path class="cls-2" d="M146.49,61.67a1.7,1.7,0,0,1,0,.45L144.6,76.06l5.78,2.08a1.14,1.14,0,0,1,.75,1.24L147,110.27a1.14,1.14,0,0,1-.52.81l-4.91,3.14.79,14.17a2,2,0,0,1-.32,1.2l-6.62,10.26L139.77,159h19.08V32.11H143a32.66,32.66,0,0,1,1.31,6.49C144.41,39.58,146.47,61.45,146.49,61.67Z"/><polygon class="cls-3" points="126.33 83.94 134 82.64 132.92 74.71 128.01 74.71 126.33 83.94"/><polygon class="cls-3" points="132.86 57.92 132.86 44.47 125.78 40.84 126.94 56.52 132.86 57.92"/><polygon class="cls-1" points="117.3 135.55 106.16 135.55 106.11 158.96 117.3 158.96 117.3 135.55"/><polygon class="cls-3" points="127.12 58.94 128.12 72.41 132.87 72.4 132.86 60.3 127.12 58.94"/><polygon class="cls-4" points="108.61 74.72 109.89 84.33 123.91 84.33 125.66 74.72 108.61 74.72"/><polygon class="cls-1" points="101.15 83.93 104.3 110.01 110.8 108.59 107.81 86.24 101.15 83.93"/><path class="cls-4" d="M125.8,72.41l-1-13.56-10.13,2.91a.85.85,0,0,1-.09.24l-5.39,10.41Z"/><polygon class="cls-4" points="113.06 108.09 125.17 105.44 123.94 86.64 110.2 86.64 113.06 108.09"/><polygon class="cls-1" points="104.25 112.39 102.19 120.98 105.9 133.24 117.16 133.24 111.28 110.85 104.25 112.39"/><path class="cls-3" d="M125.58,38.17a.64.64,0,0,1,.19.08l7.09,3.62V32.11h-7.73Z"/><polygon class="cls-1" points="100.94 38.12 111.3 38.12 111.01 32.11 100.94 32.11 100.94 38.12"/><polygon class="cls-4" points="124.62 56.5 123.43 40.43 113.72 40.43 114.61 59.37 124.62 56.5"/><polygon class="cls-4" points="113.61 38.12 123.25 38.12 122.81 32.11 113.33 32.11 113.61 38.12"/><path class="cls-4" d="M81.46,72.41,76.07,62a.85.85,0,0,1-.09-.24L65.85,58.85l-1,13.56Z"/><path class="cls-4" d="M113.54,110.35l6,23a1.36,1.36,0,0,1,0,.29v23.21l12.76-19.76-6.75-29.36Z"/><polygon class="cls-1" points="89.5 83.93 82.83 86.24 79.85 108.59 86.35 110.01 89.5 83.93"/><polygon class="cls-1" points="86.82 142.16 103.83 142.16 103.84 135.55 86.81 135.55 86.82 142.16"/><polygon class="cls-4" points="66.74 84.33 80.75 84.33 82.04 74.72 64.99 74.72 66.74 84.33"/><polygon class="cls-4" points="65.48 105.44 77.58 108.09 80.45 86.64 66.71 86.64 65.48 105.44"/><polygon class="cls-1" points="101.83 112.57 88.82 112.57 90.41 119.17 100.24 119.17 101.83 112.57"/><path class="cls-3" d="M135.17,43.06l5.8,3c-.35-3.71-.63-6.71-.66-7.07a30,30,0,0,0-1.5-6.84h-3.64Z"/><polygon class="cls-3" points="127.45 104.94 136.79 102.9 134.32 84.92 126.24 86.3 127.45 104.94"/><path class="cls-3" d="M142.29,60.15c-.23-2.52-.67-7.12-1.07-11.4l-6.05-3.09V58.47Z"/><polygon class="cls-1" points="89.71 74.72 84.37 74.72 83.18 83.67 89.71 81.41 89.71 74.72"/><polygon class="cls-1" points="86.39 112.39 79.37 110.85 73.49 133.24 84.74 133.24 88.46 120.98 86.39 112.39"/><polygon class="cls-1" points="103.49 133.24 99.92 121.48 90.73 121.48 87.16 133.24 103.49 133.24"/><polygon class="cls-1" points="84.49 135.55 73.35 135.55 73.35 158.96 84.54 158.96 84.49 135.55"/><polygon class="cls-1" points="89.71 65.7 79 62.63 84.06 72.41 89.71 72.41 89.71 65.7"/><polygon class="cls-1" points="111.4 40.43 100.94 40.43 100.94 63.3 112.33 60.03 111.4 40.43"/><path class="cls-4" d="M65,107.71l-6.75,29.36L71,156.83V133.62a.92.92,0,0,1,0-.29l6-23Z"/><polygon class="cls-1" points="103.82 144.47 86.82 144.47 86.85 158.96 103.8 158.96 103.82 144.47"/><path class="cls-3" d="M55.47,45.66l-6,3.09c-.41,4.28-.84,8.88-1.08,11.4l7.12-1.68Z"/><polygon class="cls-3" points="45.91 109.43 49.27 111.57 49.73 103.24 46.37 78.4 41.93 80 45.91 109.43"/><path class="cls-3" d="M50.34,39c0,.36-.31,3.36-.66,7.07l5.79-3v-11H51.84A30,30,0,0,0,50.34,39Z"/><polygon class="cls-3" points="55.33 75.19 50.26 77.01 52.65 94.7 55.33 75.19"/><polygon class="cls-3" points="55.47 72.69 55.47 60.84 48.3 62.54 49.94 74.67 55.47 72.69"/><polygon class="cls-3" points="63.53 58.94 57.79 60.3 57.78 72.4 62.52 72.41 63.53 58.94"/><polygon class="cls-3" points="64.87 40.84 57.79 44.47 57.79 57.92 63.71 56.52 64.87 40.84"/><polygon class="cls-3" points="63.2 104.94 64.41 86.3 56.33 84.92 53.86 102.9 63.2 104.94"/><polygon class="cls-3" points="62.64 74.71 57.73 74.71 56.64 82.64 64.32 83.94 62.64 74.71"/><polygon class="cls-3" points="53.67 105.22 52.4 127.95 56.53 134.36 62.77 107.22 53.67 105.22"/><polygon class="cls-3" points="135.18 72.69 140.71 74.67 142.35 62.54 135.18 60.84 135.18 72.69"/><polygon class="cls-3" points="141.38 111.57 144.74 109.43 148.71 80 144.28 78.4 140.91 103.24 141.38 111.57"/><polygon class="cls-3" points="138 94.7 140.39 77.01 135.32 75.19 138 94.7"/><polygon class="cls-3" points="133.63 142.56 123.05 158.96 137.4 158.96 133.63 142.56"/><polygon class="cls-3" points="57.02 142.56 53.25 158.96 67.6 158.96 57.02 142.56"/><polygon class="cls-3" points="127.88 107.22 134.12 134.36 138.25 127.95 136.98 105.22 127.88 107.22"/><polygon class="cls-1" points="79.35 38.12 89.71 38.12 89.71 32.11 79.64 32.11 79.35 38.12"/><polygon class="cls-1" points="98.63 40.43 97.39 40.43 93.26 40.43 92.02 40.43 92.02 63.52 98.63 63.52 98.63 40.43"/><polygon class="cls-1" points="98.63 72.41 98.63 65.83 92.02 65.83 92.02 72.41 95.32 72.41 98.63 72.41"/><polygon class="cls-1" points="98.63 74.72 95.32 74.72 92.02 74.72 92.02 81.32 98.63 81.32 98.63 74.72"/><polygon class="cls-1" points="92.02 38.12 93.26 38.12 97.39 38.12 98.63 38.12 98.63 32.11 92.02 32.11 92.02 38.12"/><polygon class="cls-1" points="102 110.26 98.78 83.63 91.87 83.63 88.65 110.26 102 110.26"/><polygon class="cls-1" points="106.28 74.72 100.94 74.72 100.94 81.41 107.47 83.67 106.28 74.72"/><polygon class="cls-4" points="76.93 40.43 67.22 40.43 66.03 56.5 76.04 59.37 76.93 40.43"/><polygon class="cls-4" points="67.39 38.12 77.04 38.12 77.32 32.11 67.84 32.11 67.39 38.12"/><path class="cls-3" d="M57.79,41.87l7.08-3.62a.84.84,0,0,1,.2-.08l.45-6.06H57.79Z"/><polygon class="cls-1" points="111.65 62.63 100.94 65.7 100.94 72.41 106.59 72.41 111.65 62.63"/><polygon class="cls-1" points="89.71 40.43 79.25 40.43 78.32 60.03 89.71 63.3 89.71 40.43"/><path class="cls-5" d="M151.13,79.36l.13-.92L147.13,77h0l-2.53-.91,1.21-9h0l.71-5.22-.31-3.23h0c-.57-6.07-1.81-19.3-1.88-20.06A32.66,32.66,0,0,0,143,32.11h-4.21a30,30,0,0,1,1.5,6.84c0,.36.31,3.36.66,7.07l-5.8-3v-11h-2.31v9.76l-7.09-3.62a.64.64,0,0,0-.19-.08l-.45-6.06h-2.32l.45,6h-9.65l-.28-6H111l.29,6H100.94v-6H98.63v6H92v-6H89.71v6H79.35l.29-6H77.32l-.28,6H67.39l.45-6H65.52l-.45,6.06a.84.84,0,0,0-.2.08l-7.08,3.62V32.11H55.48v11l-5.79,3c.35-3.71.63-6.71.66-7.07a30,30,0,0,1,1.5-6.84H47.63a32.66,32.66,0,0,0-1.31,6.49c-.07.76-1.31,14-1.88,20.06h0l-.31,3.23.7,5.1,1.22,9.07L43.51,77h0l-4.12,1.47L40,82.9h0l3.19,23.59h0l.24,1.82.27,2v0l.06.48,5.36,3.42-.57,10.13L48.29,129l2.9,4.48,4.08,6.33L50.88,159h2.37L57,142.57,67.6,159h5.75V135.55H84.49L84.54,159h2.31l0-14.49h17l0,14.49h2.31l0-23.41H117.3V159h5.75l10.58-16.39L137.4,159h2.37l-4.39-19.11,3.53-5.48v0l3.45-5.35-.27-4.76-.56-10,5.35-3.43.07-.48a.43.43,0,0,0,0,0l.28-2,.23-1.73h0l3.66-27.11Zm-15.95-6.67V60.84l7.17,1.7-1.64,12.13ZM140.39,77,138,94.7l-2.68-19.51Zm.83-28.26c.4,4.28.84,8.88,1.07,11.4l-7.11-1.68V45.66Zm-4.43,54.15-9.34,2L126.24,86.3l8.08-1.38ZM134,82.64l-7.68,1.3L128,74.71h4.91Zm-5.89-10.23-1-13.47,5.74,1.36V72.4Zm4.74-27.94V57.92l-5.92-1.4-1.16-15.68Zm-9.43-4,1.19,16.07-10,2.87-.89-18.94ZM114.58,62a.85.85,0,0,0,.09-.24l10.13-2.91,1,13.56H109.19ZM110.2,86.64h13.74l1.23,18.8-12.11,2.65Zm.6,22L104.3,110l-3.15-26.08,6.66,2.31Zm13.11-24.27h-14l-1.28-9.6h17Zm-23-43.89H111.4l.93,19.6L100.94,63.3Zm0,25.27,10.71-3.07-5.06,9.78h-5.65Zm0,9h5.34l1.19,9-6.53-2.26ZM92,40.43h6.61V63.52H92Zm0,25.4h6.61v6.58H92Zm0,8.89h6.61v6.6H92Zm-.15,8.91h6.91L102,110.26H88.65Zm-1.14,37.85h9.19l3.57,11.76H87.16Zm-1.91-8.91h13l-1.59,6.6H90.41ZM84.06,72.41,79,62.63,89.71,65.7v6.71Zm5.65,2.31v6.69l-6.53,2.26,1.19-9Zm-23,11.92H80.45l-2.87,21.45-12.1-2.65ZM65,74.72H82l-1.28,9.6h-14ZM82.84,86.24l6.66-2.31L86.35,110l-6.5-1.42ZM79.25,40.43H89.71V63.3L78.32,60Zm-12,0h9.71L76,59.37,66,56.5ZM65.85,58.85,76,61.76a.85.85,0,0,0,.09.24l5.39,10.41H64.85ZM57.79,44.47l7.08-3.63L63.71,56.52l-5.92,1.4Zm0,15.83,5.74-1.36-1,13.47H57.78Zm-.06,14.41h4.91l1.68,9.23-7.68-1.3Zm-1.4,10.21,8.08,1.38L63.2,104.94l-9.34-2ZM52.65,94.7,50.26,77l5.07-1.82ZM49.43,48.75l6-3.09V58.47l-7.12,1.68C48.59,57.63,49,53,49.43,48.75Zm6,12.09V72.69l-5.53,2L48.3,62.54ZM46.37,78.4l3.36,24.84-.46,8.33-3.36-2.14L41.93,80Zm10.16,56L52.4,128l1.27-22.73,9.1,2Zm14.54-1a.92.92,0,0,0,0,.29v23.21L58.28,137.07,65,107.71l12.08,2.64Zm2.42-.09,5.88-22.39,7,1.54L88.46,121l-3.72,12.26Zm30.34,8.92h-17v-6.61h17Zm2.07-8.92L102.19,121l2.07-8.59,7-1.54,5.88,22.39Zm13.71,23.59V133.62a1.36,1.36,0,0,0,0-.29l-6-23,12.08-2.64,6.75,29.36Zm14.5-22.47-6.23-27.14,9.1-2L138.25,128Zm10.63-24.93-3.36,2.14-.46-8.33,3.36-24.84L148.71,80Z"/></svg>