<?xml version="1.0" encoding="UTF-8"?>
<svg width="30px" height="30px" viewBox="0 0 30 30" version="1.1" xmlns="http://www.w3.org/2000/svg" xmlns:xlink="http://www.w3.org/1999/xlink">
    <!-- Generator: Sketch 41.2 (35397) - http://www.bohemiancoding.com/sketch -->
    <title>fullscreen_cancel_btn</title>
    <desc>Created with Sketch.</desc>
    <defs>
        <rect id="path-1" x="0" y="0" width="30" height="30" rx="5"></rect>
        <mask id="mask-2" maskContentUnits="userSpaceOnUse" maskUnits="objectBoundingBox" x="0" y="0" width="30" height="30" fill="white">
            <use xlink:href="#path-1"></use>
        </mask>
    </defs>
    <g id="Pages" stroke="none" stroke-width="1" fill="none" fill-rule="evenodd">
        <g id="Landing-Page" transform="translate(-64.000000, -250.000000)">
            <g id="fullscreen_cancel_btn" transform="translate(64.000000, 250.000000)">
                <use id="Rectangle-2" stroke="#474747" mask="url(#mask-2)" stroke-width="2" fill="#1A0A00" xlink:href="#path-1"></use>
                <g id="icon" transform="translate(5.000000, 5.000000)" fill="#D6D6D6">
                    <path d="M18.0095082,4.58754098 L18.0088525,3.17114754 L14.2754098,6.90491803 C13.9265574,7.25344262 13.3616393,7.25377049 13.0131148,6.90491803 C12.6639344,6.55639344 12.6639344,5.99081967 13.012459,5.64229508 L16.7465574,1.90852459 L15.3308197,1.90852459 C14.8380328,1.90885246 14.4380328,1.50885246 14.4380328,1.0157377 C14.4386885,0.52295082 14.8380328,0.123278689 15.3308197,0.12295082 L18.9022951,0.12295082 C19.395082,0.12295082 19.795082,0.52295082 19.795082,1.0157377 L19.795082,4.58688525 C19.795082,5.08 19.3954098,5.48 18.9019672,5.48 C18.4088525,5.48 18.0088525,5.08032787 18.0095082,4.58754098 Z" id="Shape" transform="translate(16.273115, 3.644693) rotate(180.000000) translate(-16.273115, -3.644693) "></path>
                    <path d="M4.58721311,1.90885246 L3.17147541,1.90885246 L6.90491803,5.64295082 C7.25344262,5.99147541 7.25409836,6.55606557 6.90491803,6.90491803 C6.55672131,7.25377049 5.99114754,7.25377049 5.64262295,6.9052459 L1.90852459,3.17180328 L1.90852459,4.58721311 C1.90918033,5.08032787 1.50885246,5.48065574 1.01606557,5.48032787 C0.522622951,5.48032787 0.12295082,5.08032787 0.12295082,4.58721311 L0.12295082,1.01606557 C0.12295082,0.523606557 0.52295082,0.123606557 1.01606557,0.12295082 L4.58721311,0.123278689 C5.08,0.123606557 5.48,0.523278689 5.48,1.01606557 C5.48,1.5095082 5.08,1.90918033 4.58721311,1.90885246 Z" id="Shape" transform="translate(3.644754, 3.644775) rotate(180.000000) translate(-3.644754, -3.644775) "></path>
                    <path d="M1.90852459,15.3308197 L1.90918033,16.7468852 L5.64262295,13.0127869 C5.99147541,12.6642623 6.55639344,12.6642623 6.90491803,13.0127869 C7.25409836,13.3613115 7.25409836,13.9265574 6.90590164,14.2754098 L3.17147541,18.0091803 L4.58721311,18.0091803 C5.08,18.0088525 5.48065574,18.4088525 5.48,18.9019672 C5.48,19.3947541 5.08,19.7944262 4.58721311,19.795082 L1.01639344,19.795082 C0.523278689,19.795082 0.123278689,19.395082 0.123278689,18.9019672 L0.123278689,15.3311475 C0.123278689,14.8377049 0.523278689,14.4380328 1.01639344,14.4380328 C1.50918033,14.4377049 1.90918033,14.8377049 1.90852459,15.3308197 Z" id="Shape" transform="translate(3.645103, 16.273238) rotate(180.000000) translate(-3.645103, -16.273238) "></path>
                    <path d="M15.3308197,18.0091803 L16.7465574,18.0091803 L13.0131148,14.275082 C12.6645902,13.9265574 12.6639344,13.3616393 13.0131148,13.0131148 C13.3613115,12.6642623 13.9268852,12.6642623 14.2754098,13.0127869 L18.0095082,16.7465574 L18.0095082,15.3311475 C18.0088525,14.8380328 18.4091803,14.4380328 18.9019672,14.4383607 C19.395082,14.4386885 19.795082,14.8380328 19.795082,15.3311475 L19.795082,18.902623 C19.795082,19.395082 19.395082,19.795082 18.9019672,19.7957377 L15.3308197,19.7954098 C14.8380328,19.7954098 14.4380328,19.3957377 14.4380328,18.902623 C14.4380328,18.4088525 14.8380328,18.0088525 15.3308197,18.0091803 Z" id="Shape" transform="translate(16.273279, 16.273586) rotate(180.000000) translate(-16.273279, -16.273586) "></path>
                </g>
            </g>
        </g>
    </g>
</svg>